<svg xmlns="http://www.w3.org/2000/svg" xmlns:xlink="http://www.w3.org/1999/xlink" viewBox="0 0 246.2 42.61"><defs><style>.cls-1{fill:#101124;}.cls-2{fill:url(#Degradado_sin_nombre_13);}.cls-3{fill:url(#Degradado_sin_nombre_13-2);}.cls-4{fill:url(#Degradado_sin_nombre_13-3);}.cls-5{fill:url(#Degradado_sin_nombre_13-4);}.cls-6{fill:url(#Degradado_sin_nombre_13-5);}.cls-7{fill:url(#Degradado_sin_nombre_13-6);}.cls-8{fill:url(#Degradado_sin_nombre_13-7);}.cls-9{fill:url(#Degradado_sin_nombre_13-8);}.cls-10{fill:url(#Degradado_sin_nombre_13-9);}.cls-11{fill:url(#Degradado_sin_nombre_13-10);}.cls-12{fill:url(#Degradado_sin_nombre_13-11);}.cls-13{fill:url(#Degradado_sin_nombre_13-12);}.cls-14{fill:url(#Degradado_sin_nombre_13-13);}.cls-15{fill:url(#Degradado_sin_nombre_13-14);}.cls-16{fill:url(#Degradado_sin_nombre_13-15);}</style><linearGradient id="Degradado_sin_nombre_13" x1="150.86" y1="-17.93" x2="170.77" y2="54.93" gradientUnits="userSpaceOnUse"><stop offset="0" stop-color="#d679af"/><stop offset="1" stop-color="#3a3d91"/></linearGradient><linearGradient id="Degradado_sin_nombre_13-2" x1="168.09" y1="-22.66" x2="188" y2="50.21" xlink:href="#Degradado_sin_nombre_13"/><linearGradient id="Degradado_sin_nombre_13-3" x1="187.2" y1="-27.86" x2="207.11" y2="45" xlink:href="#Degradado_sin_nombre_13"/><linearGradient id="Degradado_sin_nombre_13-4" x1="204.19" y1="-32.5" x2="224.1" y2="40.36" xlink:href="#Degradado_sin_nombre_13"/><linearGradient id="Degradado_sin_nombre_13-5" x1="221.1" y1="-37.12" x2="241.01" y2="35.74" xlink:href="#Degradado_sin_nombre_13"/><linearGradient id="Degradado_sin_nombre_13-6" x1="7.4" y1="38" x2="45.65" y2="15.36" xlink:href="#Degradado_sin_nombre_13"/><linearGradient id="Degradado_sin_nombre_13-7" x1="9.13" y1="40.92" x2="47.38" y2="18.28" xlink:href="#Degradado_sin_nombre_13"/><linearGradient id="Degradado_sin_nombre_13-8" x1="10.86" y1="43.84" x2="49.11" y2="21.2" xlink:href="#Degradado_sin_nombre_13"/><linearGradient id="Degradado_sin_nombre_13-9" x1="10.06" y1="42.49" x2="48.31" y2="19.85" xlink:href="#Degradado_sin_nombre_13"/><linearGradient id="Degradado_sin_nombre_13-10" x1="10.49" y1="43.22" x2="48.74" y2="20.57" xlink:href="#Degradado_sin_nombre_13"/><linearGradient id="Degradado_sin_nombre_13-11" x1="10.92" y1="43.94" x2="49.17" y2="21.3" xlink:href="#Degradado_sin_nombre_13"/><linearGradient id="Degradado_sin_nombre_13-12" x1="11.34" y1="44.66" x2="49.59" y2="22.02" xlink:href="#Degradado_sin_nombre_13"/><linearGradient id="Degradado_sin_nombre_13-13" x1="11.77" y1="45.39" x2="50.02" y2="22.74" xlink:href="#Degradado_sin_nombre_13"/><linearGradient id="Degradado_sin_nombre_13-14" x1="12.2" y1="46.11" x2="50.45" y2="23.46" xlink:href="#Degradado_sin_nombre_13"/><linearGradient id="Degradado_sin_nombre_13-15" x1="12.63" y1="46.83" x2="50.88" y2="24.19" xlink:href="#Degradado_sin_nombre_13"/></defs><g id="Capa_2" data-name="Capa 2"><g id="Capa_1-2" data-name="Capa 1"><path class="cls-1" d="M59.55,31.27a7.78,7.78,0,0,1-3-1.9,9.06,9.06,0,0,1-2.06-3.45,16,16,0,0,1-.75-5.25,16,16,0,0,1,.75-5.24A9,9,0,0,1,56.5,12a7.67,7.67,0,0,1,3-1.9,11.39,11.39,0,0,1,3.73-.59h8.31v3.83H63.92a7.15,7.15,0,0,0-2.24.35,4.46,4.46,0,0,0-1.84,1.2,6,6,0,0,0-1.23,2.26,11.77,11.77,0,0,0-.45,3.54,11.85,11.85,0,0,0,.45,3.55,6,6,0,0,0,1.23,2.26,4.34,4.34,0,0,0,1.84,1.19,6.87,6.87,0,0,0,2.24.36h7.67v3.83H63.28A11.39,11.39,0,0,1,59.55,31.27Z"/><path class="cls-1" d="M74.21,19.94a8,8,0,0,1,.66-3.41,6,6,0,0,1,1.77-2.25,6.82,6.82,0,0,1,2.62-1.23,13.18,13.18,0,0,1,3.2-.37H88.6v7.67H84.44V16.29H83a7.94,7.94,0,0,0-1.8.2,3.91,3.91,0,0,0-1.47.62,3.18,3.18,0,0,0-1,1.12,3.67,3.67,0,0,0-.36,1.71V31.86H74.21Z"/><path class="cls-1" d="M90.83,22.27a13.21,13.21,0,0,1,.74-4.7,8.3,8.3,0,0,1,2-3.11,7.46,7.46,0,0,1,3-1.73,12.66,12.66,0,0,1,7.25,0,7.53,7.53,0,0,1,3,1.73,8.35,8.35,0,0,1,2,3.11,13,13,0,0,1,.75,4.7,12.94,12.94,0,0,1-.75,4.7,8.39,8.39,0,0,1-2,3.12,7.51,7.51,0,0,1-3,1.72,12.66,12.66,0,0,1-7.25,0,7.44,7.44,0,0,1-3-1.72,8.34,8.34,0,0,1-2-3.12A13.17,13.17,0,0,1,90.83,22.27Zm9.34,6.46a6.3,6.3,0,0,0,2-.32,4,4,0,0,0,1.64-1.05,5.27,5.27,0,0,0,1.12-2,9.8,9.8,0,0,0,.42-3.1,9.84,9.84,0,0,0-.42-3.1,5.22,5.22,0,0,0-1.12-2,4.11,4.11,0,0,0-1.64-1.06,6.41,6.41,0,0,0-4,0,4.15,4.15,0,0,0-1.65,1.06,5.21,5.21,0,0,0-1.11,2,9.84,9.84,0,0,0-.42,3.1,9.8,9.8,0,0,0,.42,3.1,5.26,5.26,0,0,0,1.11,2,4,4,0,0,0,1.65,1.05A6.3,6.3,0,0,0,100.17,28.73Z"/><path class="cls-1" d="M112.48,28.25h10a3.42,3.42,0,0,0,1.84-.46,1.72,1.72,0,0,0,.75-1.59,1.77,1.77,0,0,0-.75-1.66,3.51,3.51,0,0,0-1.84-.45h-4.66a9.82,9.82,0,0,1-2.45-.28,4.5,4.5,0,0,1-1.87-1,4.28,4.28,0,0,1-1.18-1.78,7.68,7.68,0,0,1-.42-2.73,7.52,7.52,0,0,1,.42-2.69,4.2,4.2,0,0,1,1.18-1.74A4.72,4.72,0,0,1,115.4,13a9.8,9.8,0,0,1,2.45-.29h10.58v3.61h-10a3.51,3.51,0,0,0-1.85.47,1.68,1.68,0,0,0-.77,1.58,1.76,1.76,0,0,0,.76,1.66,3.6,3.6,0,0,0,1.85.45H123a9.72,9.72,0,0,1,2.44.29,4.46,4.46,0,0,1,1.86,1,4.15,4.15,0,0,1,1.18,1.77,7.76,7.76,0,0,1,.42,2.73,7.73,7.73,0,0,1-.41,2.69,4.23,4.23,0,0,1-1.18,1.74,4.45,4.45,0,0,1-1.85.94,9.28,9.28,0,0,1-2.44.29H112.48Z"/><path class="cls-1" d="M132.39,28.25h10a3.44,3.44,0,0,0,1.84-.46A1.72,1.72,0,0,0,145,26.2a1.77,1.77,0,0,0-.75-1.66,3.53,3.53,0,0,0-1.84-.45h-4.67a9.74,9.74,0,0,1-2.44-.28,4.23,4.23,0,0,1-3.06-2.74,7.93,7.93,0,0,1-.41-2.73,7.77,7.77,0,0,1,.41-2.69,4.32,4.32,0,0,1,1.19-1.74,4.65,4.65,0,0,1,1.87-.94,9.72,9.72,0,0,1,2.44-.29h10.58v3.61h-10a3.52,3.52,0,0,0-1.86.47,1.7,1.7,0,0,0-.77,1.58,1.76,1.76,0,0,0,.77,1.66,3.6,3.6,0,0,0,1.85.45H143a9.64,9.64,0,0,1,2.43.29,4.44,4.44,0,0,1,1.87,1,4.34,4.34,0,0,1,1.18,1.77,7.76,7.76,0,0,1,.42,2.73,7.48,7.48,0,0,1-.42,2.69,4.12,4.12,0,0,1-1.17,1.74,4.55,4.55,0,0,1-1.86.94,9.23,9.23,0,0,1-2.44.29H132.39Z"/><path class="cls-2" d="M157.15,31.27a7.78,7.78,0,0,1-3.05-1.9A8.94,8.94,0,0,1,152,25.92a15.74,15.74,0,0,1-.76-5.25,15.72,15.72,0,0,1,.76-5.24A8.87,8.87,0,0,1,154.1,12a7.67,7.67,0,0,1,3.05-1.9,11.35,11.35,0,0,1,3.73-.59h8.31v3.83h-7.68a7.13,7.13,0,0,0-2.23.35,4.4,4.4,0,0,0-1.84,1.2,6,6,0,0,0-1.23,2.26,11.77,11.77,0,0,0-.45,3.54,11.85,11.85,0,0,0,.45,3.55,6,6,0,0,0,1.23,2.26,4.28,4.28,0,0,0,1.84,1.19,6.86,6.86,0,0,0,2.23.36h7.68v3.83h-8.31A11.35,11.35,0,0,1,157.15,31.27Z"/><path class="cls-3" d="M172.7,6.29h4.16v6.39h4.54a13.24,13.24,0,0,1,3.2.37,6.82,6.82,0,0,1,2.62,1.23A6.21,6.21,0,0,1,189,16.53a8,8,0,0,1,.66,3.41V31.86h-4.16V19.94a3.55,3.55,0,0,0-.37-1.71,3.06,3.06,0,0,0-1-1.12,3.91,3.91,0,0,0-1.47-.62,8,8,0,0,0-1.8-.2h-4V31.86H172.7Z"/><path class="cls-4" d="M197.25,31.37a6.59,6.59,0,0,1-2.62-1.63,8.19,8.19,0,0,1-1.77-3,13.38,13.38,0,0,1-.66-4.51,13.38,13.38,0,0,1,.66-4.51,8.06,8.06,0,0,1,1.77-3,6.48,6.48,0,0,1,2.62-1.63,10.21,10.21,0,0,1,3.2-.5h7.13v3.61H201a5.67,5.67,0,0,0-1.57.21,3.76,3.76,0,0,0-1.33.69,4.13,4.13,0,0,0-1,1.28,6.82,6.82,0,0,0-.6,2h11.09v3.64H196.49a6.91,6.91,0,0,0,.6,2,4.13,4.13,0,0,0,1,1.28,3.56,3.56,0,0,0,1.33.67,6.09,6.09,0,0,0,1.57.19h6.58v3.61h-7.13A10.21,10.21,0,0,1,197.25,31.37Z"/><path class="cls-5" d="M215.51,31.37a6.52,6.52,0,0,1-2.62-1.63,8.07,8.07,0,0,1-1.78-3,13.66,13.66,0,0,1-.65-4.51,13.66,13.66,0,0,1,.65-4.51,7.94,7.94,0,0,1,1.78-3,6.41,6.41,0,0,1,2.62-1.63,10.16,10.16,0,0,1,3.2-.5h7.12v3.61h-6.58a5.67,5.67,0,0,0-1.81.29,3.5,3.5,0,0,0-1.47,1,5.12,5.12,0,0,0-1,1.83,9.79,9.79,0,0,0-.37,2.88,9.79,9.79,0,0,0,.37,2.88A5.09,5.09,0,0,0,216,27a3.47,3.47,0,0,0,1.47,1,5.67,5.67,0,0,0,1.81.29h6.58v3.61h-7.12A10.16,10.16,0,0,1,215.51,31.37Z"/><path class="cls-6" d="M228.46,6.29h4.47v15l7.51-8.6h5.76l-8.54,9.59,8.54,9.59h-5.76l-7.51-8.6v8.6h-4.47Z"/><polygon class="cls-1" points="6.4 22.98 5.01 21.57 0.19 26.34 1.59 27.75 6.4 22.98 6.4 22.98"/><path class="cls-1" d="M8.88,25.46,7.49,24.05,2.67,28.81l1,1h0l.38.39,4.82-4.76Z"/><path class="cls-1" d="M11.36,27.94,10,26.53,5.15,31.29l.57.58h0l.81.82,4.82-4.76Z"/><polygon class="cls-1" points="13.83 30.41 12.44 29 7.62 33.77 9.02 35.18 13.83 30.41 13.83 30.41"/><path class="cls-7" d="M16.31,32.89l-1.39-1.41L10.1,36.24l1.08,1.09h0l.31.31,4.82-4.76Z"/><polygon class="cls-8" points="18.79 35.37 17.39 33.96 12.58 38.72 13.97 40.13 18.79 35.37 18.79 35.37"/><path class="cls-9" d="M21.27,37.85l-1.4-1.41L15.05,41.2l1,1h0l.39.39,4.82-4.76Z"/><polygon class="cls-1" points="19.81 6.17 21.2 4.76 16.38 0 14.99 1.41 19.81 6.17 19.81 6.17"/><path class="cls-1" d="M17.31,8.63,18.7,7.22,13.89,2.46l-1,1h0l-.39.4,4.82,4.76Z"/><path class="cls-1" d="M14.81,11.08,16.2,9.67,11.39,4.91l-.58.58h0L10,6.32l4.82,4.76Z"/><polygon class="cls-1" points="12.31 13.54 13.71 12.13 8.89 7.37 7.5 8.78 12.31 13.54 12.31 13.54"/><path class="cls-1" d="M9.81,16l1.4-1.41L6.39,9.82,5.32,10.91h0L5,11.23,9.81,16Z"/><polygon class="cls-1" points="7.32 18.45 8.71 17.04 3.89 12.28 2.5 13.69 7.32 18.45 7.32 18.45"/><path class="cls-1" d="M4.82,20.9l1.39-1.41L1.39,14.73l-1,1h0L0,16.14,4.82,20.9Z"/><polygon class="cls-1" points="28 1.69 26.61 0.28 21.79 5.04 23.18 6.45 28 1.69 28 1.69"/><path class="cls-1" d="M30.48,4.16l-1.4-1.41L24.27,7.51l1,1h0l.39.39,4.82-4.76Z"/><path class="cls-1" d="M33,6.64,31.56,5.23,26.74,10l.58.59h0l.81.82L33,6.64Z"/><polygon class="cls-1" points="35.43 9.12 34.04 7.71 29.22 12.47 30.61 13.88 35.43 9.12 35.43 9.12"/><path class="cls-1" d="M37.91,11.59l-1.4-1.41L31.7,15,32.77,16h0l.31.32,4.82-4.77Z"/><polygon class="cls-1" points="40.39 14.07 38.99 12.66 34.17 17.42 35.57 18.83 40.39 14.07 40.39 14.07"/><path class="cls-1" d="M42.86,16.55l-1.39-1.41L36.65,19.9l1,1h0l.39.39,4.81-4.76Z"/><polygon class="cls-10" points="41.67 27.88 43.07 26.47 38.25 21.71 36.86 23.12 41.67 27.88 41.67 27.88"/><path class="cls-11" d="M39.18,30.33l1.39-1.41-4.82-4.76-1,1h0l-.38.39,4.82,4.76Z"/><path class="cls-12" d="M36.68,32.79l1.39-1.41-4.82-4.76-.57.58h0l-.81.82,4.82,4.76Z"/><polygon class="cls-13" points="34.18 35.24 35.57 33.84 30.75 29.07 29.36 30.48 34.18 35.24 34.18 35.24"/><path class="cls-14" d="M31.68,37.7l1.39-1.41-4.81-4.76-1.08,1.09h0l-.32.32,4.82,4.76Z"/><polygon class="cls-15" points="29.18 40.16 30.58 38.74 25.76 33.98 24.36 35.39 29.18 40.16 29.18 40.16"/><path class="cls-16" d="M26.68,42.61l1.4-1.41-4.82-4.76-1,1h0l-.38.39,4.81,4.76Z"/><polygon class="cls-1" points="18.83 18.14 16.71 18.14 15.15 20.42 13.58 18.14 11.47 18.14 14.13 21.89 11.47 25.63 13.58 25.63 15.15 23.36 16.71 25.63 18.83 25.63 16.16 21.89 18.83 18.14"/><path class="cls-1" d="M20.68,18.34a2.65,2.65,0,0,0-1,.65A2.94,2.94,0,0,0,19,20.15a5.2,5.2,0,0,0-.25,1.74A5.18,5.18,0,0,0,19,23.62a3.05,3.05,0,0,0,.69,1.17,2.74,2.74,0,0,0,1,.64,3.68,3.68,0,0,0,1.25.2h2.82V24.1H22.13a2.14,2.14,0,0,1-.67-.11,1.21,1.21,0,0,1-.53-.34,1.77,1.77,0,0,1-.36-.67,3.66,3.66,0,0,1-.14-1.09,3.78,3.78,0,0,1,.14-1.1,1.85,1.85,0,0,1,.36-.67,1.31,1.31,0,0,1,.53-.34,2.14,2.14,0,0,1,.67-.11h2.62V18.14H21.93A3.94,3.94,0,0,0,20.68,18.34Z"/><polygon class="cls-1" points="32.23 18.14 29.96 18.14 27.32 21.17 27.32 18.14 25.58 18.14 25.58 25.63 27.32 25.63 27.32 22.6 29.96 25.63 32.23 25.63 28.89 21.89 32.23 18.14"/></g></g></svg>