<?xml version="1.0" encoding="UTF-8" standalone="no"?><!-- Generator: Gravit.io --><svg xmlns="http://www.w3.org/2000/svg" xmlns:xlink="http://www.w3.org/1999/xlink" style="isolation:isolate" viewBox="0 0 217.9 91" width="217.9pt" height="91pt"><defs><clipPath id="_clipPath_RKaXqZYl8wjSGA1xQmTQBik96yIDIysi"><rect width="217.9" height="91"/></clipPath></defs><g clip-path="url(#_clipPath_RKaXqZYl8wjSGA1xQmTQBik96yIDIysi)"><g><path d=" M 18.046 68.167 Q 0 68.167 0 56.537 L 0 36.182 Q 0 23.889 18.046 23.889 Q 24.192 23.889 29.809 25.144 L 29.809 29.903 Q 23.462 28.315 18.178 28.315 Q 15.6 28.315 13.684 28.616 Q 11.767 28.913 9.979 29.639 Q 6.146 31.29 6.146 36.117 L 6.146 56.208 Q 6.146 63.609 18.438 63.609 Q 23.727 63.609 30.073 62.021 L 30.073 66.912 Q 24.456 68.167 18.046 68.167 L 18.046 68.167 Z  M 32.455 67.51 L 32.455 35.52 L 38.072 35.52 L 38.072 40.74 Q 38.072 39.221 39.395 37.87 Q 40.714 36.51 42.763 35.688 Q 44.811 34.859 46.796 34.859 L 49.703 34.859 L 49.703 39.95 L 46.399 39.95 Q 42.169 39.95 40.289 41.041 Q 38.4 42.131 38.4 44.97 L 38.4 67.51 L 32.455 67.51 Z  M 64.761 68.167 Q 60.531 68.167 58.415 67.871 Q 56.302 67.574 54.185 66.584 Q 52.004 65.589 51.014 63.38 Q 50.023 61.163 50.023 57.394 L 50.023 46.293 Q 50.023 43.318 50.749 41.073 Q 51.475 38.824 52.665 37.569 Q 53.656 36.446 55.676 35.817 Q 57.689 35.191 59.802 34.991 Q 62.183 34.859 64.761 34.859 Q 68.197 34.859 69.945 35.023 Q 71.701 35.191 73.682 35.721 Q 75.73 36.314 76.853 37.505 Q 77.98 38.691 78.769 40.941 Q 79.499 43.254 79.499 46.293 L 79.499 57.394 Q 79.499 63.015 76.921 65.589 Q 75.863 66.648 73.882 67.245 Q 71.898 67.839 69.785 68.035 Q 67.271 68.167 64.761 68.167 L 64.761 68.167 Z  M 64.761 64.27 Q 67.536 64.27 68.791 64.138 Q 70.045 64.006 71.236 63.408 Q 72.427 62.883 72.92 61.656 Q 73.417 60.438 73.417 58.256 L 73.417 45.303 Q 73.417 42.328 72.691 40.973 Q 71.962 39.618 70.214 39.189 Q 68.462 38.76 64.761 38.76 Q 61.061 38.76 59.305 39.189 Q 57.557 39.618 56.831 40.973 Q 56.101 42.328 56.101 45.303 L 56.101 58.256 Q 56.101 60.438 56.598 61.656 Q 57.096 62.883 58.282 63.408 Q 59.473 64.006 60.728 64.138 Q 61.983 64.27 64.761 64.27 L 64.761 64.27 Z  M 92.786 68.167 Q 87.694 68.167 81.813 67.377 L 81.813 62.815 Q 89.546 64.07 92.918 64.07 Q 97.148 64.07 98.996 63.244 Q 100.848 62.418 100.848 60.173 L 100.848 56.933 Q 100.848 54.885 99.461 54.027 Q 98.07 53.165 94.967 53.165 L 91.33 53.165 Q 86.375 53.165 83.765 51.116 Q 81.155 49.067 81.155 45.367 L 81.155 42.396 Q 81.155 34.859 95.428 34.859 Q 96.486 34.859 105.142 35.388 L 105.142 39.686 Q 99.261 38.76 95.163 38.76 Q 90.472 38.76 88.752 39.686 Q 87.037 40.608 87.037 42.789 L 87.037 45.499 Q 87.037 48.739 92.918 48.739 L 96.619 48.739 Q 106.73 48.739 106.73 56.272 L 106.73 59.05 Q 106.73 64.006 103.294 66.087 Q 99.858 68.167 92.786 68.167 L 92.786 68.167 Z  M 118.958 68.167 Q 113.87 68.167 107.989 67.377 L 107.989 62.815 Q 115.719 64.07 119.09 64.07 Q 123.32 64.07 125.172 63.244 Q 127.021 62.418 127.021 60.173 L 127.021 56.933 Q 127.021 54.885 125.633 54.027 Q 124.246 53.165 121.139 53.165 L 117.507 53.165 Q 112.547 53.165 109.937 51.116 Q 107.327 49.067 107.327 45.367 L 107.327 42.396 Q 107.327 34.859 121.604 34.859 Q 122.659 34.859 131.319 35.388 L 131.319 39.686 Q 125.437 38.76 121.34 38.76 Q 116.645 38.76 114.929 39.686 Q 113.209 40.608 113.209 42.789 L 113.209 45.499 Q 113.209 48.739 119.09 48.739 L 122.791 48.739 Q 132.902 48.739 132.902 56.272 L 132.902 59.05 Q 132.902 64.006 129.466 66.087 Q 126.03 68.167 118.958 68.167 L 118.958 68.167 Z  M 32.796 34.859 L 32.796 23.769 L 34.335 23.769 L 34.335 24.663 L 34.351 24.663 Q 34.54 23.597 37.194 23.597 Q 38.781 23.597 39.591 24.258 Q 40.401 24.924 40.401 25.958 L 40.401 29.39 Q 40.401 30.132 40.185 30.681 Q 39.972 31.234 39.623 31.543 Q 39.315 31.836 38.773 32.008 Q 38.228 32.18 37.695 32.233 Q 37.21 32.285 36.52 32.285 Q 35.762 32.285 35.133 32.104 Q 34.503 31.924 34.351 31.579 L 34.335 34.859 L 32.796 34.859 Z  M 36.556 31.234 Q 37.454 31.234 37.923 31.106 Q 38.4 30.974 38.605 30.629 Q 38.813 30.284 38.813 29.578 L 38.813 26.511 Q 38.813 25.734 38.605 25.353 Q 38.4 24.976 37.923 24.847 Q 37.454 24.715 36.54 24.715 Q 35.622 24.715 35.177 24.847 Q 34.728 24.976 34.54 25.345 Q 34.351 25.718 34.351 26.511 L 34.351 29.578 Q 34.351 30.284 34.548 30.629 Q 34.744 30.974 35.213 31.106 Q 35.678 31.234 36.556 31.234 Z  M 45.06 32.285 Q 43.873 32.285 43.224 32.06 Q 42.578 31.836 42.297 31.266 Q 42.009 30.701 42.009 29.631 Q 42.009 28.68 42.277 28.155 Q 42.546 27.63 43.192 27.405 Q 43.837 27.181 45.028 27.181 L 47.53 27.181 L 47.53 25.854 Q 47.53 25.389 47.345 25.14 Q 47.165 24.888 46.744 24.787 Q 46.319 24.683 45.509 24.683 Q 44.218 24.683 42.646 24.888 L 42.646 23.753 Q 44.354 23.597 45.733 23.597 Q 47.185 23.597 47.874 23.813 Q 48.56 24.026 48.816 24.563 Q 49.077 25.096 49.077 26.215 L 49.077 32.112 L 47.578 32.112 L 47.578 31.318 Q 47.389 32.285 45.06 32.285 Z  M 45.008 31.266 L 45.32 31.266 Q 46.166 31.266 46.752 31.146 Q 47.53 30.994 47.53 30.424 L 47.53 28.147 L 45.128 28.147 Q 44.39 28.147 44.062 28.259 Q 43.733 28.372 43.633 28.68 Q 43.524 28.993 43.524 29.683 Q 43.524 30.304 43.649 30.637 Q 43.769 30.974 44.082 31.122 Q 44.39 31.266 45.008 31.266 Z  M 51.483 32.112 L 51.483 23.769 L 52.946 23.769 L 52.946 25.132 Q 52.946 24.735 53.291 24.382 Q 53.636 24.026 54.173 23.813 Q 54.702 23.597 55.219 23.597 L 55.977 23.597 L 55.977 24.924 L 55.115 24.924 Q 54.016 24.924 53.523 25.208 Q 53.034 25.493 53.034 26.235 L 53.034 32.112 L 51.483 32.112 Z  M 59.814 32.285 Q 58.627 32.285 57.978 32.06 Q 57.332 31.836 57.047 31.266 Q 56.759 30.701 56.759 29.631 Q 56.759 28.68 57.031 28.155 Q 57.296 27.63 57.946 27.405 Q 58.587 27.181 59.782 27.181 L 62.279 27.181 L 62.279 25.854 Q 62.279 25.389 62.099 25.14 Q 61.919 24.888 61.498 24.787 Q 61.069 24.683 60.263 24.683 Q 58.968 24.683 57.4 24.888 L 57.4 23.753 Q 59.108 23.597 60.483 23.597 Q 61.935 23.597 62.62 23.813 Q 63.314 24.026 63.574 24.563 Q 63.831 25.096 63.831 26.215 L 63.831 32.112 L 62.332 32.112 L 62.332 31.318 Q 62.139 32.285 59.814 32.285 Z  M 59.762 31.266 L 60.07 31.266 Q 60.916 31.266 61.502 31.146 Q 62.279 30.994 62.279 30.424 L 62.279 28.147 L 59.882 28.147 Q 59.144 28.147 58.812 28.259 Q 58.487 28.372 58.383 28.68 Q 58.282 28.993 58.282 29.683 Q 58.282 30.304 58.403 30.637 Q 58.523 30.974 58.828 31.122 Q 59.144 31.266 59.762 31.266 Z  M 69.215 32.285 Q 67.973 32.285 67.267 32.036 Q 66.561 31.783 66.245 31.218 Q 65.924 30.649 65.924 29.631 L 65.924 25.958 Q 65.924 24.699 66.71 24.146 Q 67.492 23.597 69.304 23.597 Q 70.386 23.597 71.172 23.873 Q 71.958 24.146 71.974 24.663 L 72.01 24.663 L 71.974 22.546 L 71.974 20.044 L 73.525 20.044 L 73.525 32.112 L 72.01 32.112 L 72.01 31.13 Q 72.01 31.595 71.264 31.924 Q 70.522 32.285 69.215 32.285 L 69.215 32.285 Z  M 69.544 31.218 Q 70.839 31.218 71.405 30.921 Q 71.974 30.629 71.974 29.923 L 71.974 25.802 Q 71.974 24.683 69.681 24.683 Q 68.301 24.683 67.884 24.888 Q 67.455 25.096 67.455 25.802 L 67.455 29.923 Q 67.455 30.629 67.929 30.921 Q 68.406 31.218 69.544 31.218 Z  M 75.787 22.374 L 75.787 20.75 L 77.342 20.75 L 77.342 22.374 L 75.787 22.374 Z  M 75.787 32.112 L 75.787 23.769 L 77.342 23.769 L 77.342 32.112 L 75.787 32.112 Z  M 89.266 32.112 L 89.266 23.769 L 90.817 23.769 L 90.817 24.787 Q 91.058 23.597 93.628 23.597 Q 95.717 23.597 96.23 24.735 Q 96.386 24.182 97.172 23.889 Q 97.958 23.597 99.096 23.597 Q 100.648 23.597 101.285 24.174 Q 101.923 24.751 101.923 25.994 L 101.923 32.112 L 100.371 32.112 L 100.371 26.094 Q 100.371 25.77 100.315 25.561 Q 100.267 25.353 100.111 25.148 Q 99.766 24.715 98.579 24.715 Q 97.661 24.715 97.216 24.835 Q 96.763 24.96 96.603 25.252 Q 96.438 25.545 96.438 26.094 L 96.438 32.112 L 94.887 32.112 L 94.887 26.094 Q 94.887 25.77 94.835 25.561 Q 94.786 25.353 94.626 25.148 Q 94.285 24.715 93.111 24.715 Q 92.164 24.715 91.679 24.835 Q 91.194 24.96 91.01 25.244 Q 90.817 25.525 90.817 26.094 L 90.817 32.112 L 89.266 32.112 L 89.266 32.112 Z  M 106.894 32.285 Q 105.7 32.285 105.058 32.06 Q 104.409 31.836 104.124 31.266 Q 103.843 30.701 103.843 29.631 Q 103.843 28.68 104.108 28.155 Q 104.376 27.63 105.022 27.405 Q 105.667 27.181 106.858 27.181 L 109.356 27.181 L 109.356 25.854 Q 109.356 25.389 109.176 25.14 Q 108.995 24.888 108.574 24.787 Q 108.153 24.683 107.339 24.683 Q 106.044 24.683 104.481 24.888 L 104.481 23.753 Q 106.185 23.597 107.564 23.597 Q 109.015 23.597 109.705 23.813 Q 110.39 24.026 110.647 24.563 Q 110.908 25.096 110.908 26.215 L 110.908 32.112 L 109.412 32.112 L 109.412 31.318 Q 109.22 32.285 106.894 32.285 L 106.894 32.285 Z  M 106.838 31.266 L 107.151 31.266 Q 107.997 31.266 108.578 31.146 Q 109.356 30.994 109.356 30.424 L 109.356 28.147 L 106.958 28.147 Q 106.221 28.147 105.892 28.259 Q 105.563 28.372 105.463 28.68 Q 105.359 28.993 105.359 29.683 Q 105.359 30.304 105.479 30.637 Q 105.599 30.974 105.908 31.122 Q 106.221 31.266 106.838 31.266 L 106.838 31.266 Z  M 83.091 34.923 Q 81.347 34.923 80.321 34.285 Q 79.299 33.648 79.299 32.253 Q 79.299 31.459 79.832 30.873 Q 80.365 30.284 81.195 30.011 Q 80.505 29.631 80.505 28.977 Q 80.505 28.632 80.658 28.44 Q 80.814 28.251 81.107 28.027 Q 80.554 27.75 80.185 27.165 Q 79.816 26.579 79.816 25.786 Q 79.816 23.2 83.091 23.2 L 86.279 23.2 L 86.279 23.629 L 85.16 23.801 L 85.16 23.889 Q 85.693 24.166 86.03 24.655 Q 86.367 25.148 86.367 25.786 Q 86.367 28.372 83.091 28.372 Q 81.279 28.372 81.279 28.977 Q 81.279 29.578 83.091 29.578 Q 84.763 29.578 85.822 30.244 Q 86.884 30.905 86.884 32.253 Q 86.884 33.648 85.858 34.285 Q 84.831 34.923 83.091 34.923 L 83.091 34.923 Z  M 83.091 27.766 Q 83.865 27.766 84.338 27.293 Q 84.815 26.82 84.815 25.786 Q 84.815 24.803 84.338 24.302 Q 83.865 23.801 83.091 23.801 Q 82.314 23.801 81.841 24.278 Q 81.367 24.751 81.367 25.786 Q 81.367 26.82 81.841 27.293 Q 82.314 27.766 83.091 27.766 Z  M 83.091 34.233 Q 84.126 34.233 84.727 33.744 Q 85.333 33.251 85.333 32.253 Q 85.333 30.529 83.264 30.268 L 82.314 30.184 Q 81.608 30.456 81.227 30.958 Q 80.85 31.459 80.85 32.253 Q 80.85 33.251 81.452 33.744 Q 82.057 34.233 83.091 34.233 L 83.091 34.233 Z " fill-rule="evenodd" fill="rgb(255,255,255)"/><path d=" M 142.61 21.557 L 214.759 21.557 L 214.759 65.467 L 142.61 65.467 L 142.61 21.557 Z " fill="rgb(255,255,255)"/><path d=" M 142.61 65.467 L 214.759 65.467 L 214.759 21.557 L 217.937 18.975 L 217.937 68.167 L 140.109 68.167 L 140.109 18.975 L 217.937 18.975 L 214.759 21.557 L 142.61 21.557 L 142.61 65.467 Z " fill="rgb(0,136,206)"/><path d=" M 166.514 34.614 L 174.435 45.077 C 174.787 45.543 175.303 45.506 175.584 44.993 C 191.471 16.029 201.071 4.564 203.227 2.493 C 204.914 0.872 208.17 -0.226 210.494 0.04 L 213.728 0.409 C 216.05 0.675 216.695 2.328 215.166 4.097 C 199.961 21.69 188.595 44.167 183.559 54.095 C 179.619 61.86 172.123 62.551 166.832 55.633 C 161.863 49.136 151.549 38.085 153.154 35.328 C 154.007 33.367 157.952 32.515 159.553 32.128 C 161.923 31.556 165.042 32.669 166.514 34.614 Z " fill="rgb(245,147,32)"/><path d=" M 151.766 87.032 L 151.766 75.256 L 156.422 75.256 L 156.422 75.256 Q 158.486 75.256 159.39 76.728 L 159.39 76.728 L 159.39 76.728 Q 160.294 78.2 160.294 81.144 L 160.294 81.144 L 160.294 81.144 Q 160.294 83.96 159.31 85.496 L 159.31 85.496 L 159.31 85.496 Q 158.326 87.032 156.422 87.032 L 156.422 87.032 L 151.766 87.032 L 151.766 87.032 Z  M 153.046 85.896 L 156.326 85.896 L 156.326 85.896 Q 157.686 85.896 158.358 84.64 L 158.358 84.64 L 158.358 84.64 Q 159.03 83.384 159.03 81.144 L 159.03 81.144 L 159.03 81.144 Q 159.03 79.4 158.75 78.36 L 158.75 78.36 L 158.75 78.36 Q 158.47 77.32 157.878 76.864 L 157.878 76.864 L 157.878 76.864 Q 157.286 76.408 156.326 76.408 L 156.326 76.408 L 153.046 76.408 L 153.046 85.896 L 153.046 85.896 Z  M 165.558 87.128 L 165.558 87.128 Q 164.182 87.128 163.422 86.728 L 163.422 86.728 L 163.422 86.728 Q 162.662 86.328 162.326 85.384 L 162.326 85.384 L 162.326 85.384 Q 161.99 84.44 161.99 82.744 L 161.99 82.744 L 161.99 82.744 Q 161.99 81.032 162.334 80.088 L 162.334 80.088 L 162.334 80.088 Q 162.678 79.144 163.446 78.76 L 163.446 78.76 L 163.446 78.76 Q 164.214 78.376 165.574 78.376 L 165.574 78.376 L 165.574 78.376 Q 166.742 78.376 167.446 78.632 L 167.446 78.632 L 167.446 78.632 Q 168.15 78.888 168.486 79.504 L 168.486 79.504 L 168.486 79.504 Q 168.822 80.12 168.822 81.208 L 168.822 81.208 L 168.822 81.208 Q 168.822 82.296 168.19 82.784 L 168.19 82.784 L 168.19 82.784 Q 167.558 83.272 166.39 83.272 L 166.39 83.272 L 163.254 83.272 L 163.254 83.272 Q 163.27 84.376 163.478 84.976 L 163.478 84.976 L 163.478 84.976 Q 163.686 85.576 164.246 85.856 L 164.246 85.856 L 164.246 85.856 Q 164.806 86.136 165.862 86.136 L 165.862 86.136 L 168.614 86.136 L 168.614 86.904 L 168.614 86.904 Q 167.75 87.016 167.078 87.072 L 167.078 87.072 L 167.078 87.072 Q 166.406 87.128 165.558 87.128 L 165.558 87.128 L 165.558 87.128 Z  M 163.238 82.44 L 166.278 82.44 L 166.278 82.44 Q 167.014 82.44 167.35 82.168 L 167.35 82.168 L 167.35 82.168 Q 167.686 81.896 167.686 81.224 L 167.686 81.224 L 167.686 81.224 Q 167.686 80.152 167.214 79.744 L 167.214 79.744 L 167.214 79.744 Q 166.742 79.336 165.574 79.336 L 165.574 79.336 L 165.574 79.336 Q 164.646 79.336 164.15 79.608 L 164.15 79.608 L 164.15 79.608 Q 163.654 79.88 163.446 80.536 L 163.446 80.536 L 163.446 80.536 Q 163.238 81.192 163.238 82.44 L 163.238 82.44 L 163.238 82.44 Z  M 172.614 87.128 L 172.614 87.128 Q 171.654 87.128 171.054 86.552 L 171.054 86.552 L 171.054 86.552 Q 170.454 85.976 170.454 84.984 L 170.454 84.984 L 170.454 84.376 L 170.454 84.376 Q 170.454 83.336 171.134 82.728 L 171.134 82.728 L 171.134 82.728 Q 171.814 82.12 173.126 82.12 L 173.126 82.12 L 176.022 82.12 L 176.022 81.064 L 176.022 81.064 Q 176.022 80.2 175.55 79.784 L 175.55 79.784 L 175.55 79.784 Q 175.078 79.368 173.814 79.368 L 173.814 79.368 L 171.158 79.368 L 171.158 78.616 L 171.158 78.616 Q 172.662 78.36 174.278 78.36 L 174.278 78.36 L 174.278 78.36 Q 175.83 78.36 176.558 78.992 L 176.558 78.992 L 176.558 78.992 Q 177.286 79.624 177.286 81 L 177.286 81 L 177.286 87.032 L 176.31 87.032 L 176.07 86.056 L 176.07 86.056 Q 175.958 86.152 175.374 86.424 L 175.374 86.424 L 175.374 86.424 Q 174.79 86.696 174.038 86.912 L 174.038 86.912 L 174.038 86.912 Q 173.286 87.128 172.614 87.128 L 172.614 87.128 L 172.614 87.128 Z  M 173.174 86.184 L 173.174 86.184 Q 173.606 86.184 174.23 86.024 L 174.23 86.024 L 174.23 86.024 Q 174.854 85.864 175.358 85.688 L 175.358 85.688 L 175.358 85.688 Q 175.862 85.512 176.022 85.448 L 176.022 85.448 L 176.022 82.76 L 173.414 82.872 L 173.414 82.872 Q 172.534 82.904 172.126 83.304 L 172.126 83.304 L 172.126 83.304 Q 171.718 83.704 171.718 84.392 L 171.718 84.392 L 171.718 84.776 L 171.718 84.776 Q 171.718 85.512 172.142 85.848 L 172.142 85.848 L 172.142 85.848 Q 172.566 86.184 173.174 86.184 L 173.174 86.184 L 173.174 86.184 Z  M 181.91 87.048 L 181.91 87.048 Q 180.774 87.048 180.222 86.424 L 180.222 86.424 L 180.222 86.424 Q 179.67 85.8 179.67 84.296 L 179.67 84.296 L 179.67 74.824 L 180.934 74.824 L 180.934 84.136 L 180.934 84.136 Q 180.934 85.192 181.222 85.576 L 181.222 85.576 L 181.222 85.576 Q 181.51 85.96 182.134 86.04 L 182.134 86.04 L 182.998 86.136 L 182.998 87.048 L 181.91 87.048 L 181.91 87.048 Z  M 187.318 87.128 L 187.318 87.128 Q 186.598 87.128 185.51 87.064 L 185.51 87.064 L 185.51 87.064 Q 184.422 87 184.022 86.904 L 184.022 86.904 L 184.022 86.136 L 187.526 86.136 L 187.526 86.136 Q 188.422 86.136 188.838 85.896 L 188.838 85.896 L 188.838 85.896 Q 189.254 85.656 189.254 84.888 L 189.254 84.888 L 189.254 84.504 L 189.254 84.504 Q 189.254 83.304 187.702 83.304 L 187.702 83.304 L 186.502 83.304 L 186.502 83.304 Q 185.27 83.304 184.606 82.824 L 184.606 82.824 L 184.606 82.824 Q 183.942 82.344 183.942 81.192 L 183.942 81.192 L 183.942 80.744 L 183.942 80.744 Q 183.942 79.528 184.654 78.968 L 184.654 78.968 L 184.654 78.968 Q 185.366 78.408 186.95 78.408 L 186.95 78.408 L 186.95 78.408 Q 187.638 78.408 188.574 78.48 L 188.574 78.48 L 188.574 78.48 Q 189.51 78.552 190.038 78.648 L 190.038 78.648 L 190.038 79.416 L 186.742 79.416 L 186.742 79.416 Q 185.878 79.416 185.462 79.704 L 185.462 79.704 L 185.462 79.704 Q 185.046 79.992 185.046 80.744 L 185.046 80.744 L 185.046 81.096 L 185.046 81.096 Q 185.046 81.784 185.454 82.016 L 185.454 82.016 L 185.454 82.016 Q 185.862 82.248 186.71 82.248 L 186.71 82.248 L 187.926 82.248 L 187.926 82.248 Q 189.094 82.248 189.734 82.792 L 189.734 82.792 L 189.734 82.792 Q 190.374 83.336 190.374 84.36 L 190.374 84.36 L 190.374 84.952 L 190.374 84.952 Q 190.374 86.168 189.59 86.648 L 189.59 86.648 L 189.59 86.648 Q 188.806 87.128 187.318 87.128 L 187.318 87.128 L 187.318 87.128 Z  M 82.63 87.032 L 82.63 75.256 L 86.886 75.256 L 86.886 75.256 Q 89.926 75.256 89.926 78.28 L 89.926 78.28 L 89.926 78.28 Q 89.926 79.336 89.454 80.024 L 89.454 80.024 L 89.454 80.024 Q 88.982 80.712 88.262 80.92 L 88.262 80.92 L 88.262 80.92 Q 89.062 81.096 89.702 81.8 L 89.702 81.8 L 89.702 81.8 Q 90.342 82.504 90.342 83.768 L 90.342 83.768 L 90.342 83.768 Q 90.342 85.56 89.51 86.296 L 89.51 86.296 L 89.51 86.296 Q 88.678 87.032 87.046 87.032 L 87.046 87.032 L 82.63 87.032 L 82.63 87.032 Z  M 83.91 80.472 L 86.966 80.472 L 86.966 80.472 Q 87.75 80.472 88.23 79.888 L 88.23 79.888 L 88.23 79.888 Q 88.71 79.304 88.71 78.328 L 88.71 78.328 L 88.71 78.328 Q 88.71 76.408 86.886 76.408 L 86.886 76.408 L 83.91 76.408 L 83.91 80.472 L 83.91 80.472 Z  M 83.91 85.896 L 87.014 85.896 L 87.014 85.896 Q 88.038 85.896 88.582 85.384 L 88.582 85.384 L 88.582 85.384 Q 89.126 84.872 89.126 83.56 L 89.126 83.56 L 89.126 83.56 Q 89.126 82.6 88.526 82.04 L 88.526 82.04 L 88.526 82.04 Q 87.926 81.48 87.014 81.48 L 87.014 81.48 L 83.91 81.48 L 83.91 85.896 L 83.91 85.896 Z  M 94.806 87.128 L 94.806 87.128 Q 92.246 87.128 92.246 84.504 L 92.246 84.504 L 92.246 78.488 L 93.51 78.488 L 93.51 84.184 L 93.51 84.184 Q 93.51 85.208 93.966 85.608 L 93.966 85.608 L 93.966 85.608 Q 94.422 86.008 95.366 86.008 L 95.366 86.008 L 95.366 86.008 Q 96.086 86.008 96.71 85.808 L 96.71 85.808 L 96.71 85.808 Q 97.334 85.608 98.022 85.192 L 98.022 85.192 L 98.022 78.488 L 99.286 78.488 L 99.286 87.032 L 98.294 87.032 L 98.022 86.088 L 98.022 86.088 Q 96.39 87.128 94.806 87.128 L 94.806 87.128 L 94.806 87.128 Z  M 104.614 87.128 L 104.614 87.128 Q 103.894 87.128 102.806 87.064 L 102.806 87.064 L 102.806 87.064 Q 101.718 87 101.318 86.904 L 101.318 86.904 L 101.318 86.136 L 104.822 86.136 L 104.822 86.136 Q 105.718 86.136 106.134 85.896 L 106.134 85.896 L 106.134 85.896 Q 106.55 85.656 106.55 84.888 L 106.55 84.888 L 106.55 84.504 L 106.55 84.504 Q 106.55 83.304 104.998 83.304 L 104.998 83.304 L 103.798 83.304 L 103.798 83.304 Q 102.566 83.304 101.902 82.824 L 101.902 82.824 L 101.902 82.824 Q 101.238 82.344 101.238 81.192 L 101.238 81.192 L 101.238 80.744 L 101.238 80.744 Q 101.238 79.528 101.95 78.968 L 101.95 78.968 L 101.95 78.968 Q 102.662 78.408 104.246 78.408 L 104.246 78.408 L 104.246 78.408 Q 104.934 78.408 105.87 78.48 L 105.87 78.48 L 105.87 78.48 Q 106.806 78.552 107.334 78.648 L 107.334 78.648 L 107.334 79.416 L 104.038 79.416 L 104.038 79.416 Q 103.174 79.416 102.758 79.704 L 102.758 79.704 L 102.758 79.704 Q 102.342 79.992 102.342 80.744 L 102.342 80.744 L 102.342 81.096 L 102.342 81.096 Q 102.342 81.784 102.75 82.016 L 102.75 82.016 L 102.75 82.016 Q 103.158 82.248 104.006 82.248 L 104.006 82.248 L 105.222 82.248 L 105.222 82.248 Q 106.39 82.248 107.03 82.792 L 107.03 82.792 L 107.03 82.792 Q 107.67 83.336 107.67 84.36 L 107.67 84.36 L 107.67 84.952 L 107.67 84.952 Q 107.67 86.168 106.886 86.648 L 106.886 86.648 L 106.886 86.648 Q 106.102 87.128 104.614 87.128 L 104.614 87.128 L 104.614 87.128 Z  M 109.862 76.968 L 109.862 76.968 Q 109.75 76.968 109.678 76.896 L 109.678 76.896 L 109.678 76.896 Q 109.606 76.824 109.606 76.712 L 109.606 76.712 L 109.606 75.464 L 109.606 75.464 Q 109.606 75.208 109.862 75.208 L 109.862 75.208 L 110.758 75.208 L 110.758 75.208 Q 110.998 75.208 110.998 75.464 L 110.998 75.464 L 110.998 76.712 L 110.998 76.712 Q 110.998 76.968 110.758 76.968 L 110.758 76.968 L 109.862 76.968 L 109.862 76.968 Z  M 109.67 87.032 L 109.67 78.488 L 110.934 78.488 L 110.934 87.032 L 109.67 87.032 L 109.67 87.032 Z  M 113.366 87.032 L 113.366 78.488 L 114.358 78.488 L 114.63 79.432 L 114.63 79.432 Q 115.302 78.968 116.118 78.656 L 116.118 78.656 L 116.118 78.656 Q 116.934 78.344 117.75 78.344 L 117.75 78.344 L 117.75 78.344 Q 119.078 78.344 119.734 79.16 L 119.734 79.16 L 119.734 79.16 Q 120.39 79.976 120.39 81.224 L 120.39 81.224 L 120.39 87.032 L 119.126 87.032 L 119.126 81.368 L 119.126 81.368 Q 119.126 80.536 118.654 80.016 L 118.654 80.016 L 118.654 80.016 Q 118.182 79.496 117.35 79.496 L 117.35 79.496 L 117.35 79.496 Q 116.582 79.496 115.982 79.696 L 115.982 79.696 L 115.982 79.696 Q 115.382 79.896 114.63 80.328 L 114.63 80.328 L 114.63 87.032 L 113.366 87.032 L 113.366 87.032 Z  M 126.038 87.128 L 126.038 87.128 Q 124.662 87.128 123.902 86.728 L 123.902 86.728 L 123.902 86.728 Q 123.142 86.328 122.806 85.384 L 122.806 85.384 L 122.806 85.384 Q 122.47 84.44 122.47 82.744 L 122.47 82.744 L 122.47 82.744 Q 122.47 81.032 122.814 80.088 L 122.814 80.088 L 122.814 80.088 Q 123.158 79.144 123.926 78.76 L 123.926 78.76 L 123.926 78.76 Q 124.694 78.376 126.054 78.376 L 126.054 78.376 L 126.054 78.376 Q 127.222 78.376 127.926 78.632 L 127.926 78.632 L 127.926 78.632 Q 128.63 78.888 128.966 79.504 L 128.966 79.504 L 128.966 79.504 Q 129.302 80.12 129.302 81.208 L 129.302 81.208 L 129.302 81.208 Q 129.302 82.296 128.67 82.784 L 128.67 82.784 L 128.67 82.784 Q 128.038 83.272 126.87 83.272 L 126.87 83.272 L 123.734 83.272 L 123.734 83.272 Q 123.75 84.376 123.958 84.976 L 123.958 84.976 L 123.958 84.976 Q 124.166 85.576 124.726 85.856 L 124.726 85.856 L 124.726 85.856 Q 125.286 86.136 126.342 86.136 L 126.342 86.136 L 129.094 86.136 L 129.094 86.904 L 129.094 86.904 Q 128.23 87.016 127.558 87.072 L 127.558 87.072 L 127.558 87.072 Q 126.886 87.128 126.038 87.128 L 126.038 87.128 L 126.038 87.128 Z  M 123.718 82.44 L 126.758 82.44 L 126.758 82.44 Q 127.494 82.44 127.83 82.168 L 127.83 82.168 L 127.83 82.168 Q 128.166 81.896 128.166 81.224 L 128.166 81.224 L 128.166 81.224 Q 128.166 80.152 127.694 79.744 L 127.694 79.744 L 127.694 79.744 Q 127.222 79.336 126.054 79.336 L 126.054 79.336 L 126.054 79.336 Q 125.126 79.336 124.63 79.608 L 124.63 79.608 L 124.63 79.608 Q 124.134 79.88 123.926 80.536 L 123.926 80.536 L 123.926 80.536 Q 123.718 81.192 123.718 82.44 L 123.718 82.44 L 123.718 82.44 Z  M 134.374 87.128 L 134.374 87.128 Q 133.654 87.128 132.566 87.064 L 132.566 87.064 L 132.566 87.064 Q 131.478 87 131.078 86.904 L 131.078 86.904 L 131.078 86.136 L 134.582 86.136 L 134.582 86.136 Q 135.478 86.136 135.894 85.896 L 135.894 85.896 L 135.894 85.896 Q 136.31 85.656 136.31 84.888 L 136.31 84.888 L 136.31 84.504 L 136.31 84.504 Q 136.31 83.304 134.758 83.304 L 134.758 83.304 L 133.558 83.304 L 133.558 83.304 Q 132.326 83.304 131.662 82.824 L 131.662 82.824 L 131.662 82.824 Q 130.998 82.344 130.998 81.192 L 130.998 81.192 L 130.998 80.744 L 130.998 80.744 Q 130.998 79.528 131.71 78.968 L 131.71 78.968 L 131.71 78.968 Q 132.422 78.408 134.006 78.408 L 134.006 78.408 L 134.006 78.408 Q 134.694 78.408 135.63 78.48 L 135.63 78.48 L 135.63 78.48 Q 136.566 78.552 137.094 78.648 L 137.094 78.648 L 137.094 79.416 L 133.798 79.416 L 133.798 79.416 Q 132.934 79.416 132.518 79.704 L 132.518 79.704 L 132.518 79.704 Q 132.102 79.992 132.102 80.744 L 132.102 80.744 L 132.102 81.096 L 132.102 81.096 Q 132.102 81.784 132.51 82.016 L 132.51 82.016 L 132.51 82.016 Q 132.918 82.248 133.766 82.248 L 133.766 82.248 L 134.982 82.248 L 134.982 82.248 Q 136.15 82.248 136.79 82.792 L 136.79 82.792 L 136.79 82.792 Q 137.43 83.336 137.43 84.36 L 137.43 84.36 L 137.43 84.952 L 137.43 84.952 Q 137.43 86.168 136.646 86.648 L 136.646 86.648 L 136.646 86.648 Q 135.862 87.128 134.374 87.128 L 134.374 87.128 L 134.374 87.128 Z  M 142.374 87.128 L 142.374 87.128 Q 141.654 87.128 140.566 87.064 L 140.566 87.064 L 140.566 87.064 Q 139.478 87 139.078 86.904 L 139.078 86.904 L 139.078 86.136 L 142.582 86.136 L 142.582 86.136 Q 143.478 86.136 143.894 85.896 L 143.894 85.896 L 143.894 85.896 Q 144.31 85.656 144.31 84.888 L 144.31 84.888 L 144.31 84.504 L 144.31 84.504 Q 144.31 83.304 142.758 83.304 L 142.758 83.304 L 141.558 83.304 L 141.558 83.304 Q 140.326 83.304 139.662 82.824 L 139.662 82.824 L 139.662 82.824 Q 138.998 82.344 138.998 81.192 L 138.998 81.192 L 138.998 80.744 L 138.998 80.744 Q 138.998 79.528 139.71 78.968 L 139.71 78.968 L 139.71 78.968 Q 140.422 78.408 142.006 78.408 L 142.006 78.408 L 142.006 78.408 Q 142.694 78.408 143.63 78.48 L 143.63 78.48 L 143.63 78.48 Q 144.566 78.552 145.094 78.648 L 145.094 78.648 L 145.094 79.416 L 141.798 79.416 L 141.798 79.416 Q 140.934 79.416 140.518 79.704 L 140.518 79.704 L 140.518 79.704 Q 140.102 79.992 140.102 80.744 L 140.102 80.744 L 140.102 81.096 L 140.102 81.096 Q 140.102 81.784 140.51 82.016 L 140.51 82.016 L 140.51 82.016 Q 140.918 82.248 141.766 82.248 L 141.766 82.248 L 142.982 82.248 L 142.982 82.248 Q 144.15 82.248 144.79 82.792 L 144.79 82.792 L 144.79 82.792 Q 145.43 83.336 145.43 84.36 L 145.43 84.36 L 145.43 84.952 L 145.43 84.952 Q 145.43 86.168 144.646 86.648 L 144.646 86.648 L 144.646 86.648 Q 143.862 87.128 142.374 87.128 L 142.374 87.128 L 142.374 87.128 Z  M 37.19 87.032 L 35.958 87.032 L 34.838 77.256 L 32.006 87.032 L 30.838 87.032 L 27.958 77.336 L 26.886 87.032 L 25.654 87.032 L 26.998 75.256 L 28.294 75.256 L 31.43 85.432 L 34.502 75.256 L 35.814 75.256 L 37.19 87.032 L 37.19 87.032 Z  M 40.822 87.128 L 40.822 87.128 Q 39.862 87.128 39.262 86.552 L 39.262 86.552 L 39.262 86.552 Q 38.662 85.976 38.662 84.984 L 38.662 84.984 L 38.662 84.376 L 38.662 84.376 Q 38.662 83.336 39.342 82.728 L 39.342 82.728 L 39.342 82.728 Q 40.022 82.12 41.334 82.12 L 41.334 82.12 L 44.23 82.12 L 44.23 81.064 L 44.23 81.064 Q 44.23 80.2 43.758 79.784 L 43.758 79.784 L 43.758 79.784 Q 43.286 79.368 42.022 79.368 L 42.022 79.368 L 39.366 79.368 L 39.366 78.616 L 39.366 78.616 Q 40.87 78.36 42.486 78.36 L 42.486 78.36 L 42.486 78.36 Q 44.038 78.36 44.766 78.992 L 44.766 78.992 L 44.766 78.992 Q 45.494 79.624 45.494 81 L 45.494 81 L 45.494 87.032 L 44.518 87.032 L 44.278 86.056 L 44.278 86.056 Q 44.166 86.152 43.582 86.424 L 43.582 86.424 L 43.582 86.424 Q 42.998 86.696 42.246 86.912 L 42.246 86.912 L 42.246 86.912 Q 41.494 87.128 40.822 87.128 L 40.822 87.128 L 40.822 87.128 Z  M 41.382 86.184 L 41.382 86.184 Q 41.814 86.184 42.438 86.024 L 42.438 86.024 L 42.438 86.024 Q 43.062 85.864 43.566 85.688 L 43.566 85.688 L 43.566 85.688 Q 44.07 85.512 44.23 85.448 L 44.23 85.448 L 44.23 82.76 L 41.622 82.872 L 41.622 82.872 Q 40.742 82.904 40.334 83.304 L 40.334 83.304 L 40.334 83.304 Q 39.926 83.704 39.926 84.392 L 39.926 84.392 L 39.926 84.776 L 39.926 84.776 Q 39.926 85.512 40.35 85.848 L 40.35 85.848 L 40.35 85.848 Q 40.774 86.184 41.382 86.184 L 41.382 86.184 L 41.382 86.184 Z  M 47.878 87.032 L 47.878 74.824 L 49.142 74.824 L 49.142 81.896 L 50.358 81.896 L 52.966 78.488 L 54.31 78.488 L 51.302 82.472 L 54.502 87.032 L 53.158 87.032 L 50.31 83.032 L 49.142 83.032 L 49.142 87.032 L 47.878 87.032 L 47.878 87.032 Z  M 56.166 76.968 L 56.166 76.968 Q 56.054 76.968 55.982 76.896 L 55.982 76.896 L 55.982 76.896 Q 55.91 76.824 55.91 76.712 L 55.91 76.712 L 55.91 75.464 L 55.91 75.464 Q 55.91 75.208 56.166 75.208 L 56.166 75.208 L 57.062 75.208 L 57.062 75.208 Q 57.302 75.208 57.302 75.464 L 57.302 75.464 L 57.302 76.712 L 57.302 76.712 Q 57.302 76.968 57.062 76.968 L 57.062 76.968 L 56.166 76.968 L 56.166 76.968 Z  M 55.974 87.032 L 55.974 78.488 L 57.238 78.488 L 57.238 87.032 L 55.974 87.032 L 55.974 87.032 Z  M 59.67 87.032 L 59.67 78.488 L 60.662 78.488 L 60.934 79.432 L 60.934 79.432 Q 61.606 78.968 62.422 78.656 L 62.422 78.656 L 62.422 78.656 Q 63.238 78.344 64.054 78.344 L 64.054 78.344 L 64.054 78.344 Q 65.382 78.344 66.038 79.16 L 66.038 79.16 L 66.038 79.16 Q 66.694 79.976 66.694 81.224 L 66.694 81.224 L 66.694 87.032 L 65.43 87.032 L 65.43 81.368 L 65.43 81.368 Q 65.43 80.536 64.958 80.016 L 64.958 80.016 L 64.958 80.016 Q 64.486 79.496 63.654 79.496 L 63.654 79.496 L 63.654 79.496 Q 62.886 79.496 62.286 79.696 L 62.286 79.696 L 62.286 79.696 Q 61.686 79.896 60.934 80.328 L 60.934 80.328 L 60.934 87.032 L 59.67 87.032 L 59.67 87.032 Z  M 76.71 78.472 L 76.71 79.192 L 74.79 79.352 L 74.79 79.352 Q 75.11 79.56 75.326 79.776 L 75.326 79.776 L 75.326 79.776 Q 75.542 79.992 75.71 80.432 L 75.71 80.432 L 75.71 80.432 Q 75.878 80.872 75.878 81.544 L 75.878 81.544 L 75.878 81.544 Q 75.878 82.664 75.158 83.4 L 75.158 83.4 L 75.158 83.4 Q 74.438 84.136 72.854 84.136 L 72.854 84.136 L 71.494 84.136 L 71.494 84.136 Q 70.774 84.136 70.406 84.344 L 70.406 84.344 L 70.406 84.344 Q 70.038 84.552 70.038 85.048 L 70.038 85.048 L 70.038 85.048 Q 70.038 85.4 70.302 85.576 L 70.302 85.576 L 70.302 85.576 Q 70.566 85.752 70.934 85.752 L 70.934 85.752 L 73.766 85.752 L 73.766 85.752 Q 75.254 85.752 75.982 86.328 L 75.982 86.328 L 75.982 86.328 Q 76.71 86.904 76.71 88.104 L 76.71 88.104 L 76.71 88.456 L 76.71 88.456 Q 76.71 89.64 75.902 90.296 L 75.902 90.296 L 75.902 90.296 Q 75.094 90.952 73.558 90.952 L 73.558 90.952 L 71.174 90.952 L 71.174 90.952 Q 69.878 90.952 69.118 90.416 L 69.118 90.416 L 69.118 90.416 Q 68.358 89.88 68.358 88.84 L 68.358 88.84 L 68.358 88.456 L 68.358 88.456 Q 68.358 87.752 68.742 87.256 L 68.742 87.256 L 68.742 87.256 Q 69.126 86.76 69.75 86.488 L 69.75 86.488 L 69.75 86.488 Q 69.35 86.296 69.142 85.968 L 69.142 85.968 L 69.142 85.968 Q 68.934 85.64 68.934 85.224 L 68.934 85.224 L 68.934 85.224 Q 68.934 84.008 70.374 83.704 L 70.374 83.704 L 70.374 83.704 Q 69.542 83.368 69.198 82.704 L 69.198 82.704 L 69.198 82.704 Q 68.854 82.04 68.854 81.224 L 68.854 81.224 L 68.854 81.224 Q 68.854 78.472 72.15 78.472 L 72.15 78.472 L 76.71 78.472 L 76.71 78.472 Z  M 72.726 83.16 L 72.726 83.16 Q 73.846 83.16 74.286 82.68 L 74.286 82.68 L 74.286 82.68 Q 74.726 82.2 74.726 81.4 L 74.726 81.4 L 74.726 81.4 Q 74.726 79.464 72.87 79.464 L 72.87 79.464 L 71.958 79.464 L 71.958 79.464 Q 70.998 79.464 70.502 79.888 L 70.502 79.888 L 70.502 79.888 Q 70.006 80.312 70.006 81.288 L 70.006 81.288 L 70.006 81.288 Q 70.006 83.16 71.766 83.16 L 71.766 83.16 L 72.726 83.16 L 72.726 83.16 Z  M 73.606 86.744 L 71.398 86.744 L 71.398 86.744 Q 70.63 86.744 70.094 87.12 L 70.094 87.12 L 70.094 87.12 Q 69.558 87.496 69.558 88.248 L 69.558 88.248 L 69.558 88.6 L 69.558 88.6 Q 69.558 90.024 71.462 90.024 L 71.462 90.024 L 73.446 90.024 L 73.446 90.024 Q 74.438 90.024 74.974 89.648 L 74.974 89.648 L 74.974 89.648 Q 75.51 89.272 75.51 88.504 L 75.51 88.504 L 75.51 88.184 L 75.51 88.184 Q 75.51 87.496 75.078 87.12 L 75.078 87.12 L 75.078 87.12 Q 74.646 86.744 73.606 86.744 L 73.606 86.744 L 73.606 86.744 Z " fill="rgb(255,255,255)"/></g></g></svg>