<svg xmlns="http://www.w3.org/2000/svg" xmlns:xlink="http://www.w3.org/1999/xlink" viewBox="0 0 425.2 420.68"><defs><style>.cls-1{fill:#101124;}.cls-2{fill:url(#Degradado_sin_nombre_13);}.cls-3{fill:url(#Degradado_sin_nombre_13-2);}.cls-4{fill:url(#Degradado_sin_nombre_13-3);}.cls-5{fill:url(#Degradado_sin_nombre_13-4);}.cls-6{fill:url(#Degradado_sin_nombre_13-5);}.cls-7{fill:url(#Degradado_sin_nombre_13-6);}.cls-8{fill:url(#Degradado_sin_nombre_13-7);}.cls-9{fill:url(#Degradado_sin_nombre_13-8);}.cls-10{fill:url(#Degradado_sin_nombre_13-9);}.cls-11{fill:url(#Degradado_sin_nombre_13-10);}</style><linearGradient id="Degradado_sin_nombre_13" x1="73.08" y1="375.2" x2="450.71" y2="151.64" gradientUnits="userSpaceOnUse"><stop offset="0" stop-color="#d679af"/><stop offset="1" stop-color="#3a3d91"/></linearGradient><linearGradient id="Degradado_sin_nombre_13-2" x1="90.15" y1="404.03" x2="467.77" y2="180.47" xlink:href="#Degradado_sin_nombre_13"/><linearGradient id="Degradado_sin_nombre_13-3" x1="107.22" y1="432.86" x2="484.84" y2="209.3" xlink:href="#Degradado_sin_nombre_13"/><linearGradient id="Degradado_sin_nombre_13-4" x1="99.33" y1="419.54" x2="476.95" y2="195.98" xlink:href="#Degradado_sin_nombre_13"/><linearGradient id="Degradado_sin_nombre_13-5" x1="103.56" y1="426.67" x2="481.18" y2="203.12" xlink:href="#Degradado_sin_nombre_13"/><linearGradient id="Degradado_sin_nombre_13-6" x1="107.78" y1="433.81" x2="485.4" y2="210.25" xlink:href="#Degradado_sin_nombre_13"/><linearGradient id="Degradado_sin_nombre_13-7" x1="112.01" y1="440.94" x2="489.63" y2="217.39" xlink:href="#Degradado_sin_nombre_13"/><linearGradient id="Degradado_sin_nombre_13-8" x1="116.23" y1="448.08" x2="493.85" y2="224.53" xlink:href="#Degradado_sin_nombre_13"/><linearGradient id="Degradado_sin_nombre_13-9" x1="120.45" y1="455.21" x2="498.08" y2="231.66" xlink:href="#Degradado_sin_nombre_13"/><linearGradient id="Degradado_sin_nombre_13-10" x1="124.68" y1="462.35" x2="502.3" y2="238.8" xlink:href="#Degradado_sin_nombre_13"/></defs><g id="Capa_2" data-name="Capa 2"><g id="Capa_1-2" data-name="Capa 1"><polygon class="cls-1" points="63.21 226.9 49.45 212.98 1.89 260.01 15.65 273.93 63.21 226.9 63.21 226.9"/><path class="cls-1" d="M87.67,251.36,73.9,237.44l-47.55,47,9.85,10v0l0,0h0l0,0,0,0h0l3.81,3.85,47.56-47Z"/><path class="cls-1" d="M112.12,275.82,98.36,261.9l-47.56,47,5.7,5.76h0l.07.07,8,8.08,47.55-47Z"/><polygon class="cls-1" points="136.58 300.27 122.82 286.35 75.26 333.38 89.02 347.3 136.58 300.27 136.58 300.27"/><path class="cls-2" d="M161,324.73l-13.76-13.92-47.55,47s6.55,6.64,10.62,10.74h0l0,0,3.11,3.15,47.55-47Z"/><polygon class="cls-3" points="185.49 349.18 171.73 335.26 124.17 382.29 137.93 396.21 185.49 349.18 185.49 349.18"/><path class="cls-4" d="M210,373.64l-13.77-13.92-47.55,47,9.85,10h0l0,0h0l0,0,0,0h0l3.81,3.85,47.56-47Z"/><polygon class="cls-1" points="195.56 60.94 209.32 47.02 161.76 0 148 13.92 195.56 60.94 195.56 60.94"/><path class="cls-1" d="M170.89,85.18l13.76-13.92-47.56-47-9.84,10h0l0,0h0l0,0,0,0h0l-3.81,3.86,47.56,47Z"/><path class="cls-1" d="M146.22,109.42,160,95.5l-47.56-47-5.7,5.76h0l-.07.07-8,8.08,47.56,47Z"/><polygon class="cls-1" points="121.56 133.66 135.32 119.74 87.76 72.72 74 86.64 121.56 133.66 121.56 133.66"/><path class="cls-1" d="M96.89,157.9,110.65,144,63.1,97,52.47,107.7h0l0,0-3.11,3.15,47.56,47Z"/><polygon class="cls-1" points="72.22 182.14 85.99 168.22 38.43 121.2 24.67 135.12 72.22 182.14 72.22 182.14"/><path class="cls-1" d="M47.56,206.38l13.76-13.92-47.56-47-9.85,10h0l0,0h0l0,0,0,0h0L0,159.35l47.56,47Z"/><polygon class="cls-1" points="276.44 16.63 262.68 2.71 215.12 49.74 228.88 63.66 276.44 16.63 276.44 16.63"/><path class="cls-1" d="M300.9,41.09,287.13,27.17l-47.55,47,9.84,10,0,0,0,0h0l0,0,0,0h0l3.81,3.85,47.56-47Z"/><path class="cls-1" d="M325.35,65.54,311.59,51.63,264,98.65l5.69,5.76h0l.07.07,8,8.08,47.56-47Z"/><polygon class="cls-1" points="349.81 90 336.04 76.08 288.49 123.11 302.25 137.03 349.81 90 349.81 90"/><path class="cls-1" d="M374.26,114.46,360.5,100.54l-47.56,47s6.56,6.64,10.63,10.74h0l0,0,3.12,3.15,47.55-47Z"/><polygon class="cls-1" points="398.72 138.91 384.96 124.99 337.4 172.02 351.16 185.94 398.72 138.91 398.72 138.91"/><path class="cls-1" d="M423.18,163.37l-13.77-13.92-47.55,47,9.85,10v0l0,0h0l0,0,0,0h0l3.81,3.85,47.56-47Z"/><polygon class="cls-5" points="411.43 275.25 425.2 261.32 377.64 214.3 363.88 228.22 411.43 275.25 411.43 275.25"/><path class="cls-6" d="M386.77,299.48l13.76-13.92-47.56-47-9.85,10v0l0,0h0l0,0,0,0h0l-3.81,3.85,47.56,47Z"/><path class="cls-7" d="M362.1,323.72l13.76-13.92-47.55-47-5.7,5.76h0l-.07.07-8,8.08,47.56,47Z"/><polygon class="cls-8" points="337.44 347.96 351.2 334.04 303.64 287.02 289.88 300.94 337.44 347.96 337.44 347.96"/><path class="cls-9" d="M312.77,372.2l13.76-13.92-47.56-47L268.35,322h0l0,0-3.11,3.15,47.56,47Z"/><polygon class="cls-10" points="288.1 396.44 301.87 382.52 254.31 335.5 240.54 349.42 288.1 396.44 288.1 396.44"/><path class="cls-11" d="M263.44,420.68l13.76-13.92-47.56-47-9.85,10h0l0,0h0l0,0,0,0h0l-3.81,3.86,47.56,47Z"/><polygon class="cls-1" points="185.89 179.11 165 179.11 149.56 201.6 134.11 179.11 113.22 179.11 139.53 216.08 113.22 253.06 134.11 253.06 149.56 230.66 165.01 253.06 185.89 253.06 159.59 216.08 185.89 179.11"/><path class="cls-1" d="M204.2,181.06A26.27,26.27,0,0,0,194,187.45a30.23,30.23,0,0,0-6.9,11.51,52.25,52.25,0,0,0-2.46,17.12,52.16,52.16,0,0,0,2.46,17.12,30.15,30.15,0,0,0,6.9,11.51,26.27,26.27,0,0,0,10.25,6.39,38,38,0,0,0,12.29,2h27.85V237.93H218.52a20.88,20.88,0,0,1-6.63-1,12.26,12.26,0,0,1-5.21-3.41,17.27,17.27,0,0,1-3.59-6.59,44,44,0,0,1,0-21.62,17.42,17.42,0,0,1,3.59-6.59,12.42,12.42,0,0,1,5.21-3.41,20.92,20.92,0,0,1,6.63-1h25.82V179.11H216.49A38.13,38.13,0,0,0,204.2,181.06Z"/><polygon class="cls-1" points="318.17 179.11 295.84 179.11 269.7 209 269.7 179.11 252.54 179.11 252.54 253.06 269.7 253.06 269.7 223.16 295.84 253.06 318.17 253.06 285.21 216.08 318.17 179.11"/></g></g></svg>